<svg version="1.1" viewBox="0.0 0.0 960.0 540.0" fill="none" stroke="none" stroke-linecap="square" stroke-miterlimit="10" xmlns:xlink="http://www.w3.org/1999/xlink" xmlns="http://www.w3.org/2000/svg"><clipPath id="g15171a01dc1_0_294.0"><path d="m0 0l960.0 0l0 540.0l-960.0 0l0 -540.0z" clip-rule="nonzero"/></clipPath><g clip-path="url(#g15171a01dc1_0_294.0)"><path fill="#ffffff" d="m0 0l960.0 0l0 540.0l-960.0 0z" fill-rule="evenodd"/><path fill="#fc8d59" d="m297.85828 406.51968l0 -182.01575l91.02362 0l0 182.01575z" fill-rule="evenodd"/><path stroke="#000000" stroke-width="12.0" stroke-linejoin="round" stroke-linecap="butt" d="m297.85828 406.51968l0 -182.01575l91.02362 0l0 182.01575z" fill-rule="evenodd"/><path fill="#91bfdb" d="m570.9764 315.49475l0 -182.01575l91.02362 0l0 182.01575z" fill-rule="evenodd"/><path stroke="#000000" stroke-width="12.0" stroke-linejoin="round" stroke-linecap="butt" d="m570.9764 315.49475l0 -182.01575l91.02362 0l0 182.01575z" fill-rule="evenodd"/><path fill="#e0f3f8" d="m479.90552 315.49475l0 -182.01575l91.02362 0l0 182.01575z" fill-rule="evenodd"/><path stroke="#000000" stroke-width="12.0" stroke-linejoin="round" stroke-linecap="butt" d="m479.90552 315.49475l0 -182.01575l91.02362 0l0 182.01575z" fill-rule="evenodd"/><path fill="#4575b4" d="m662.0 406.51837l-182.01575 0l0 -91.02362l182.01575 0z" fill-rule="evenodd"/><path stroke="#000000" stroke-width="12.0" stroke-linejoin="round" stroke-linecap="butt" d="m662.0 406.51837l-182.01575 0l0 -91.02362l182.01575 0z" fill-rule="evenodd"/><path fill="#fee090" d="m479.90552 224.50262l0 182.01575l-91.02362 0l0 -182.01575z" fill-rule="evenodd"/><path stroke="#000000" stroke-width="12.0" stroke-linejoin="round" stroke-linecap="butt" d="m479.90552 224.50262l0 182.01575l-91.02362 0l0 -182.01575z" fill-rule="evenodd"/><path fill="#d73027" d="m479.98425 224.50262l-182.01575 0l0 -91.02362l182.01575 0z" fill-rule="evenodd"/><path stroke="#000000" stroke-width="12.0" stroke-linejoin="round" stroke-linecap="butt" d="m479.98425 224.50262l-182.01575 0l0 -91.02362l182.01575 0z" fill-rule="evenodd"/></g></svg>